<?xml version="1.0" encoding="utf-8"?>
<svg width="68px" height="71px" viewBox="0 0 68 71" version="1.1" xmlns:xlink="http://www.w3.org/1999/xlink" xmlns="http://www.w3.org/2000/svg">
  <defs>
    <path d="M0 0L67.65 0L67.65 70.26L0 70.26L0 0Z" id="path_1" />
    <clipPath id="mask_1">
      <use xlink:href="#path_1" />
    </clipPath>
  </defs>
  <g id="sigleRG">
    <path d="M0 0L67.65 0L67.65 70.26L0 70.26L0 0Z" id="Background" fill="none" fill-rule="evenodd" stroke="none" />
    <g clip-path="url(#mask_1)">
      <path d="M0 13.91L0 70.26L67.65 56.66L67.65 0L0 13.91ZM58.3599 42.9698L54.9499 43.7198L46.8398 43.5598L56.6698 39.0898L64.9198 39.2598L64.9198 39.9698L58.3599 42.9698ZM64.9206 40.6299L64.9206 41.5299L61.1406 42.3599L64.9206 40.6299ZM55.5693 6.94016L45.6893 11.3902L35.7793 11.1002L43.9493 7.39016L47.4893 6.66016L55.5693 6.94016ZM50.3008 6.11008L63.6508 3.33008L56.9708 6.33008L50.3008 6.11008ZM2.92969 48.1096L2.92969 47.3896L11.4197 43.5596L21.4197 43.7496L11.4197 48.2896L2.92969 48.1096ZM9.93085 48.9003L2.88086 52.0903L2.88086 48.8203L9.93085 48.9003ZM32.8496 22.4199L22.8496 26.8999L12.8496 26.6599L22.8496 22.1699L32.8496 22.4199ZM12.8496 21.23L22.9396 16.79L32.9396 17.06L22.9396 21.53L12.8496 21.23ZM32.8496 27.8101L22.8496 32.3001L12.8496 32.0801L22.8496 27.5801L32.8496 27.8101ZM32.8496 33.1897L22.8496 37.6897L12.8496 37.4797L22.8496 32.9697L32.8496 33.1897ZM32.8496 38.5597L22.8496 43.0697L12.8496 42.8797L22.8396 38.3896L32.8496 38.5597ZM24.3203 37.7197L34.3203 33.2197L44.2003 33.4397L34.2903 37.9197L24.3203 37.7197ZM24.3203 32.3298L34.3203 27.8398L44.2103 28.0798L34.3003 32.5498L24.3203 32.3298ZM24.3203 26.9302L34.3203 22.4502L44.2203 22.7102L34.3003 27.1702L24.3203 26.9302ZM24.3203 21.5198L34.3203 17.0498L44.2503 17.3898L34.3203 21.8398L24.3203 21.5198ZM24.3203 16.0997L34.3203 11.6396L44.2303 11.9296L34.3403 16.3896L24.3203 16.0997ZM22.9004 16.1004L12.9004 15.8204L21.1704 12.1404L24.7504 11.4004L32.9504 11.6404L22.9004 16.1004ZM11.411 15.7802L4.54102 15.5902L18.261 12.7402L11.411 15.7802ZM9.97086 16.4202L2.88086 19.5702L2.88086 16.2402L9.97086 16.4202ZM11.4106 16.4199L21.4706 16.6999L11.4006 21.1899L2.89063 20.9699L2.89063 20.2599L11.4106 16.4199ZM9.97061 21.8204L2.89063 24.9804L2.89063 21.6904L9.97061 21.8204ZM11.3997 21.8203L21.3997 22.0803L11.4397 26.6603L2.92969 26.4603L2.92969 25.7003L11.3997 21.8203ZM9.96063 27.2199L2.89063 30.3799L2.89063 27.1299L9.96063 27.2199ZM11.3906 27.2197L21.3906 27.4597L11.3906 31.9697L2.89063 31.7797L2.89063 31.1397L11.3906 27.2197ZM9.95087 32.6103L2.88086 35.7803L2.88086 32.5703L9.95087 32.6103ZM11.3806 32.6104L21.3806 32.8304L11.3806 37.3504L2.89063 37.1704L2.89063 36.5703L11.3806 32.6104ZM9.94086 37.9902L2.88086 41.1702L2.88086 38.0002L9.94086 37.9902ZM11.3708 37.9902L21.3708 38.1902L11.3708 42.7202L2.88086 42.5602L2.88086 41.9902L11.3708 37.9902ZM9.92914 43.3701L2.86914 46.5501L2.86914 43.3901L9.92914 43.3701ZM22.8398 43.7803L32.8398 43.9703L22.8398 48.4903L12.8398 48.3203L22.8398 43.7803ZM24.2598 43.1399L34.2598 38.6299L44.1398 38.8299L34.2398 43.3199L24.2598 43.1399ZM45.4894 38.8604L55.2894 39.0604L45.4594 43.5404L35.6094 43.3904L45.4894 38.8604ZM35.6309 37.9898L45.5309 33.5098L55.3409 33.7298L45.5009 38.1998L35.6309 37.9898ZM35.6309 32.6204L45.5409 28.1504L55.3908 28.3904L45.5408 32.8504L35.6309 32.6204ZM35.6309 27.2403L45.5509 22.7803L55.3709 23.0303L45.5109 27.4803L35.6309 27.2403ZM35.6309 21.8497L45.6508 17.3896L55.4808 17.6596L45.6108 22.0996L35.6309 21.8497ZM35.6309 16.4498L45.5609 12.0098L55.4008 12.2998L45.5309 16.7298L35.6309 16.4498ZM34.2505 11.0002L27.4805 10.8002L41.0105 7.99023L34.2505 11.0002ZM2.80078 54.2002L6.66077 54.2661L2.80078 55.2002L2.80078 54.2112L2.80078 54.2002ZM2.80078 53.53L2.80078 52.8L11.2808 48.96L21.2808 49.13L13.0108 52.88L9.5108 53.65L2.80078 53.53ZM22.84 49.1602L29.63 49.2702L16 52.2702L22.84 49.1602ZM24.2598 48.52L34.2098 44L44.0798 44.18L35.9198 47.9L32.4598 48.66L24.2598 48.52ZM45.4707 44.21L52.1707 44.33L38.7207 47.28L45.4707 44.21ZM58.0898 38.4603L64.9799 35.3203L64.9799 38.6003L58.0898 38.4603ZM56.7002 38.4598L46.9102 38.2598L56.7401 33.7998L64.9901 33.9798L64.9901 34.6898L56.7002 38.4598ZM58.1309 33.1603L65.0309 30.0303L65.0309 33.3103L58.1309 33.1603ZM56.7394 33.1596L46.9395 32.9396L56.7795 28.3896L65.0395 28.5896L65.0395 29.2996L56.7394 33.1596ZM58.1797 27.8505L65.0797 24.7305L65.0797 28.0205L58.1797 27.8505ZM56.7905 27.8501L46.9805 27.6101L56.8405 23.0801L65.1005 23.2901L65.1005 24.0001L56.7905 27.8501ZM58.2305 22.5399L65.1405 19.4199L65.1405 22.7099L58.2305 22.5399ZM56.8395 22.3897L47.0195 22.1397L56.8395 17.7197L65.1095 17.9497L65.1095 18.6697L56.8395 22.3897ZM58.2793 17.07L65.1893 13.96L65.1893 17.26L58.2793 17.07ZM56.8903 17.0696L47.0703 16.7996L56.9203 12.3896L65.2003 12.6296L65.2003 13.3496L56.8903 17.0696ZM58.3301 11.7504L65.2501 8.65039L65.2501 11.9604L58.3301 11.7504ZM56.9398 11.7505L47.0898 11.3905L56.9598 6.98047L65.2498 7.24047L65.2498 7.96047L56.9398 11.7505ZM58.3691 6.39004L65.2892 3.29004L65.2892 6.60004L58.3691 6.39004ZM66.6508 43.0996L66.6508 55.8496L1.00085 69.0496L1.00085 57.4996L0.880859 57.4996L1.00085 57.4996L66.6508 43.0596L66.6508 43.0596L66.6508 43.0996Z" id="Shape" fill="#002153" fill-rule="evenodd" stroke="none" />
    </g>
  </g>
</svg>